<svg xmlns="http://www.w3.org/2000/svg" viewBox="0 0 512 512">
  <defs>
    <linearGradient id="bg" x1="0%" y1="0%" x2="100%" y2="100%">
      <stop offset="0%" style="stop-color:#6366f1"/>
      <stop offset="100%" style="stop-color:#4f46e5"/>
    </linearGradient>
  </defs>
  <!-- Background -->
  <rect width="512" height="512" rx="96" fill="url(#bg)"/>
  <!-- Wallet Icon -->
  <g transform="translate(96, 120)">
    <!-- Wallet body -->
    <rect x="20" y="60" width="280" height="180" rx="24" fill="white" opacity="0.95"/>
    <!-- Wallet flap -->
    <path d="M20 100 Q20 60 60 60 L260 60 Q300 60 300 100 L300 120 L20 120 Z" fill="white"/>
    <!-- Card slot lines -->
    <rect x="60" y="100" width="120" height="8" rx="4" fill="#6366f1" opacity="0.3"/>
    <rect x="60" y="125" width="80" height="8" rx="4" fill="#6366f1" opacity="0.2"/>
    <!-- Coin circle -->
    <circle cx="240" cy="170" r="40" fill="#10b981"/>
    <text x="240" y="185" text-anchor="middle" fill="white" font-family="Arial" font-weight="bold" font-size="40">$</text>
  </g>
  <!-- Chart bars at bottom -->
  <g transform="translate(120, 340)">
    <rect x="0" y="40" width="40" height="60" rx="8" fill="white" opacity="0.4"/>
    <rect x="60" y="20" width="40" height="80" rx="8" fill="white" opacity="0.6"/>
    <rect x="120" y="0" width="40" height="100" rx="8" fill="white" opacity="0.8"/>
    <rect x="180" y="30" width="40" height="70" rx="8" fill="#10b981" opacity="0.9"/>
    <rect x="240" y="10" width="40" height="90" rx="8" fill="#10b981"/>
  </g>
</svg>
